<svg xmlns="http://www.w3.org/2000/svg" version="1.1" xmlns:xlink="http://www.w3.org/1999/xlink" xmlns:svgjs="http://svgjs.dev/svgjs" viewBox="0 0 1920 1080"><rect width="1920" height="1080" fill="#a5ceee"></rect><g transform="matrix(7.04171909509728e-17,1.15,-1.15,7.04171909509728e-17,1526.4107055664062,-501.22231140136705)"><path d="M0,-1080C-17.952965823098776,-973.2896392752034,-98.44192198586012,-660.0176992584157,-107.71779493859265,-439.73783565122017C-116.99366789132517,-219.45797204402461,-80.00567234642307,37.75436568417919,-55.65523771639515,241.67918164317314C-31.30480308636723,445.60399760216706,34.803865701977266,558.7061191622774,38.38481284157487,783.8110601027435C41.965759981172475,1008.9160010432095,-27.772086071880363,1362.9440039697602,-34.16955487880951,1592.3088272859695C-40.567023685738654,1821.673650602179,-5.694925813134918,2065.3848045476616,0,2160L 1920 2160 L 1920 -1080 Z" fill="url(&quot;#SvgjsLinearGradient1368&quot;)"></path><path d="M213.33333333333331,-1080C193.42006474662884,-998.903059010941,97.99912282592784,-754.6141473384671,93.85372181310653,-593.4183540656458C89.70832080028522,-432.2225607928245,171.293408971459,-303.40044866614994,188.46092725640545,-112.82524036307233C205.6284455413519,77.74996794000528,176.96308302417228,370.8782753382269,196.85883152278518,550.0328957528199C216.75458002139808,729.1875161674128,313.61116594916365,777.4588359092222,307.8354182480829,962.1024821244856C302.0596705470021,1146.746128339749,177.95469280209218,1458.2451867318143,162.2043453163006,1657.8947730444002C146.453997830509,1857.544359356986,204.81183533049452,2076.3157955074003,213.33333333333331,2160L 1920 2160 L 1920 -1080 Z" fill="url(&quot;#SvgjsLinearGradient1369&quot;)"></path><path d="M426.66666666666663,-1080C428.23417094371695,-1015.0068564508289,450.7942315708111,-844.1579846966184,436.0716923289685,-690.0411387049732C421.34915308712584,-535.9242927133279,349.04222553174066,-332.4846515656062,338.3314312156109,-155.2989240501282C327.62063689948116,21.8868034653498,360.7703889962797,226.96417350381975,371.8069264321901,373.0732263878947C382.8434638681005,519.1822792719696,385.8402664107314,561.9476540194979,404.5506558310735,721.3553932543215C423.2610452514157,880.763132489145,470.51766346336495,1182.1402495994218,484.06926295424284,1329.519661796836C497.62086244512074,1476.8990739942503,495.4273521576036,1467.21847673828,485.8602527763409,1605.6318664388073C476.29315339507815,1744.0452561393345,436.53226435161235,2067.6053110731345,426.66666666666663,2160L 1920 2160 L 1920 -1080 Z" fill="url(&quot;#SvgjsLinearGradient1370&quot;)"></path><path d="M640,-1080C624.3313005620192,-968.1116558037066,530.8784568482713,-637.4415322498576,545.9878033721152,-408.6699348222399C561.0971498959591,-179.89833739462225,725.152829784575,74.25134230638318,730.6560791430633,292.62958456570595C736.1593285015515,511.0078268250287,608.5935383927242,696.367856133379,579.0072995230443,901.5995187336969C549.4210606533643,1106.8311813340147,542.9731958454909,1314.2861466232293,553.1386459249835,1524.0195601676132C563.3040960044762,1733.7529737119971,625.5231076541639,2054.0032600279355,640,2160L 1920 2160 L 1920 -1080 Z" fill="url(&quot;#SvgjsLinearGradient1371&quot;)"></path><path d="M853.3333333333333,-1080C836.4362069309409,-987.1569443090688,766.5864116812735,-730.5136317051991,751.9505749189789,-522.9416658544125C737.3147381566843,-315.3697000036258,760.8892597429699,-53.11478171869231,765.5183127595656,165.43179510471992C770.1473657761612,383.97837192813216,757.7853156410177,546.1949916203215,779.7248930185531,788.337795086061C801.6644703960884,1030.4805985518005,884.8877036389811,1389.6782484135001,897.1557770247778,1618.2886158991566C909.4238504105745,1846.8989833848132,860.637073948574,2069.714769316526,853.3333333333333,2160L 1920 2160 L 1920 -1080 Z" fill="url(&quot;#SvgjsLinearGradient1372&quot;)"></path><path d="M1066.6666666666667,-1080C1073.005114795698,-961.8009146572289,1101.1440723028054,-589.2634016551335,1104.697355440855,-370.8054879433731C1108.2506385789047,-152.3475742316127,1083.0965694354704,39.105919540025496,1087.9863654949654,230.74748227056273C1092.8761615544604,422.38904500109993,1157.3484795807544,572.689291535285,1134.0361317978243,779.0438884398504C1110.7237840148941,985.3984853444159,959.3405229859102,1238.7157117712638,948.112278797384,1468.8750636979555C936.8840346088577,1699.0344156246472,1046.9076020217863,2044.8125106163259,1066.6666666666667,2160L 1920 2160 L 1920 -1080 Z" fill="url(&quot;#SvgjsLinearGradient1373&quot;)"></path><path d="M1280,-1080C1270.7640613914373,-992.7242962618337,1243.4934687268483,-746.8881105434479,1224.584368348623,-556.3457775710024C1205.6752679703977,-365.8034445985569,1140.2483390273437,-118.6273377005457,1166.545397730649,63.25399783467279C1192.8424564339543,245.13533336989127,1369.7377746670168,374.9603860537876,1382.3667205684544,534.9422356403085C1394.995666469892,694.9240852268293,1262.768440777282,854.0581937729903,1242.3190731392754,1023.1450953537977C1221.8697055012688,1192.2319969346051,1253.3903602636274,1359.987827684119,1259.6705147404148,1549.4636451251529C1265.9506692172022,1738.9394625661866,1276.6117524567358,2058.2439408541923,1280,2160L 1920 2160 L 1920 -1080 Z" fill="url(&quot;#SvgjsLinearGradient1374&quot;)"></path><path d="M1493.3333333333333,-1080C1506.9967233061845,-991.511777465511,1555.5137358691006,-713.5161707545742,1575.3136731704406,-549.0706647930665C1595.1136104717805,-384.62515883155874,1642.0839228902569,-240.66794005032915,1612.132957141373,-93.3269642309534C1582.1819913924892,54.01401158842236,1396.560770824322,180.8283105930897,1395.607878677137,334.975190123188C1394.654986529952,489.1220696532863,1572.217149515631,678.9807629952765,1606.4156042582642,831.5543129496364C1640.6140590008974,984.1278629039963,1633.333180468088,1125.2005729540601,1600.7986071329367,1250.4164898493475C1568.2640337977855,1375.6324067446349,1429.1190432139579,1431.2525626295856,1411.2081642473572,1582.849814321361C1393.2972852807566,1734.4470660131365,1479.6458051523373,2063.8083023868935,1493.3333333333333,2160L 1920 2160 L 1920 -1080 Z" fill="url(&quot;#SvgjsLinearGradient1375&quot;)"></path><path d="M1706.6666666666665,-1080C1704.0126441613934,-938.7855933602202,1698.6015403259648,-510.61691826877257,1690.7425316350284,-232.71356016132114C1682.883522944092,45.189797946130284,1672.2867918677566,339.78980441533747,1659.5126145210484,587.4201486447085C1646.73843717434,835.0504928740796,1606.2384588638417,990.971863322357,1614.0974675547782,1253.0685052149056C1621.9564762457146,1515.1651471074542,1691.2384668146851,2008.8447508691509,1706.6666666666665,2160L 1920 2160 L 1920 -1080 Z" fill="url(&quot;#SvgjsLinearGradient1376&quot;)"></path></g><defs><linearGradient x1="0.1" y1="0" x2="0" y2="1" id="SvgjsLinearGradient1368"><stop stop-color="#a5ceee" offset="0"></stop><stop stop-color="#a5daee" offset="0"></stop></linearGradient><linearGradient x1="0.1" y1="0" x2="0" y2="1" id="SvgjsLinearGradient1369"><stop stop-color="#b0d4f0" offset="0"></stop><stop stop-color="#b0dff0" offset="0.1111111111111111"></stop></linearGradient><linearGradient x1="0.1" y1="0" x2="0" y2="1" id="SvgjsLinearGradient1370"><stop stop-color="#bbdaf2" offset="0"></stop><stop stop-color="#bbe3f2" offset="0.2222222222222222"></stop></linearGradient><linearGradient x1="0.1" y1="0" x2="0" y2="1" id="SvgjsLinearGradient1371"><stop stop-color="#c5e0f4" offset="0"></stop><stop stop-color="#c5e8f4" offset="0.3333333333333333"></stop></linearGradient><linearGradient x1="0.1" y1="0" x2="0" y2="1" id="SvgjsLinearGradient1372"><stop stop-color="#d0e5f6" offset="0"></stop><stop stop-color="#d0ebf6" offset="0.4444444444444444"></stop></linearGradient><linearGradient x1="0.1" y1="0" x2="0" y2="1" id="SvgjsLinearGradient1373"><stop stop-color="#dbebf8" offset="0"></stop><stop stop-color="#dbf0f8" offset="0.5555555555555556"></stop></linearGradient><linearGradient x1="0.1" y1="0" x2="0" y2="1" id="SvgjsLinearGradient1374"><stop stop-color="#e6f1fa" offset="0"></stop><stop stop-color="#e6f4fa" offset="0.6666666666666666"></stop></linearGradient><linearGradient x1="0.1" y1="0" x2="0" y2="1" id="SvgjsLinearGradient1375"><stop stop-color="#f0f7fc" offset="0"></stop><stop stop-color="#f0f9fc" offset="0.7777777777777778"></stop></linearGradient><linearGradient x1="0.1" y1="0" x2="0" y2="1" id="SvgjsLinearGradient1376"><stop stop-color="#fbfdfe" offset="0"></stop><stop stop-color="#fbfdfe" offset="0.8888888888888888"></stop></linearGradient></defs></svg>